<svg width="200" height="200" viewBox="0 0 200 200" fill="none" xmlns="http://www.w3.org/2000/svg">
<g clip-path="url(#clip0_1_6)">
<path d="M124.994 63.1529C112.825 120.193 61.6476 131.652 62.5145 177.164" stroke="black"/>
<path d="M55.6202 143.283C50.2156 154.467 53.8735 168.439 61.893 178.385C63.7746 169.99 56.6709 157.99 55.6202 143.283Z" stroke="black"/>
<path d="M90.7078 142.818C75.298 147.293 65.0835 162.885 62.5152 179.184C72.1943 173.735 77.5263 156.539 90.7078 142.818Z" stroke="black"/>
<path d="M137.067 48.882C135.926 52.5559 133.99 56.742 131.701 59.8183C130.555 61.3574 129.34 62.593 128.116 63.3552C126.897 64.1138 125.703 64.3841 124.554 64.0717C122.201 63.4318 120.708 61.0978 120.173 57.4661C119.642 53.8583 120.091 49.1284 121.477 44.0283C122.484 40.9683 124.943 36.6337 127.602 33.1798C128.933 31.4521 130.295 29.9691 131.53 28.9832C132.147 28.4899 132.716 28.1346 133.219 27.9308C133.724 27.7262 134.121 27.6903 134.425 27.773C135.091 27.954 135.808 28.7124 136.452 30.103C137.082 31.4604 137.583 33.2942 137.895 35.3859C138.519 39.5711 138.371 44.6848 137.067 48.882Z" stroke="black"/>
<path d="M126.682 47.9255C127.565 51.3721 128.209 55.2632 128.135 58.3324C128.098 59.8714 127.881 61.1571 127.457 62.0697C127.042 62.9632 126.455 63.4545 125.655 63.5484C123.906 63.7536 122.195 62.6635 120.74 60.1979C119.292 57.743 118.179 54.0394 117.628 49.3468C117.076 44.6409 117.11 42.3078 117.415 40.0363C117.538 39.1195 117.705 38.2127 117.9 37.1538C117.949 36.8862 118 36.6088 118.053 36.319C118.225 35.3679 118.413 34.2934 118.603 33.0116C119.61 35.5285 121.1 37.8715 122.525 40.0711C122.597 40.183 122.67 40.2944 122.741 40.4054C124.483 43.0923 126.072 45.5418 126.682 47.9255Z" stroke="black"/>
<path d="M138.74 54.351C135.737 57.9803 132.398 60.7224 129.445 62.2315C127.968 62.9864 126.61 63.4214 125.454 63.5195C124.301 63.6174 123.383 63.3792 122.722 62.832C121.392 61.7314 121.163 59.6149 122.078 56.9903C122.98 54.4023 124.946 51.5105 127.655 49.1299C129.83 47.2184 132.243 45.8186 134.761 44.3575C135.173 44.1182 135.589 43.8772 136.006 43.6321C138.616 42.0999 141.288 40.4181 143.787 37.9844C143.051 46.7363 142.1 50.2921 138.74 54.351Z" stroke="black"/>
<path d="M49.9375 29.375C55.1458 29.375 60.3125 29.3542 65.4375 29.3125C70.6042 29.2708 75.3333 29.2292 79.625 29.1875C83.9167 29.1042 87.5833 29 90.625 28.875C93.6667 28.75 95.7292 28.5833 96.8125 28.375L93.75 36.6875C92.375 36.3125 90.7708 35.9792 88.9375 35.6875C87.3542 35.4375 85.4167 35.2083 83.125 35C80.875 34.75 78.2708 34.625 75.3125 34.625C74.3125 34.625 73.1042 34.6667 71.6875 34.75C70.3125 34.7917 68.9792 34.8542 67.6875 34.9375C66.1875 35.0208 64.6667 35.1042 63.125 35.1875V69.3125C67.4167 69.2708 71.2917 69.1458 74.75 68.9375C78.2083 68.7292 81.1458 68.5208 83.5625 68.3125C86.3958 68.0625 88.8958 67.7708 91.0625 67.4375L89.125 76.5C86.25 76.125 83.3125 75.7708 80.3125 75.4375C77.7292 75.1458 74.9167 74.8958 71.875 74.6875C68.8333 74.4375 65.9167 74.3125 63.125 74.3125V113.5C68.0417 113.5 72.5625 113.292 76.6875 112.875C80.8125 112.458 84.4167 111.979 87.5 111.438C91.0833 110.854 94.3542 110.167 97.3125 109.375L95.5 119.5C95 119.458 94.25 119.417 93.25 119.375C92.25 119.333 91.125 119.292 89.875 119.25C88.6667 119.208 87.375 119.167 86 119.125C84.6667 119.125 83.3958 119.104 82.1875 119.062C80.9792 119.062 79.8958 119.042 78.9375 119C78.0208 119 77.3542 119 76.9375 119H49.9375V118.75C50.1875 117.875 50.4167 116.792 50.625 115.5C50.875 114.208 51.0833 112.604 51.25 110.688C51.4167 108.771 51.5417 106.5 51.625 103.875C51.7083 101.208 51.75 98.1042 51.75 94.5625V53.875C51.75 50.3333 51.7083 47.25 51.625 44.625C51.5417 41.9583 51.4167 39.6667 51.25 37.75C51.0833 35.7917 50.875 34.1667 50.625 32.875C50.4167 31.5833 50.1875 30.5 49.9375 29.625V29.375Z" fill="black"/>
<path d="M143.312 99.625H141.938C141.604 98.6667 141.062 97.5833 140.312 96.375C139.604 95.1667 138.646 94.0417 137.438 93C136.271 91.9167 134.833 91.0208 133.125 90.3125C131.458 89.6042 129.479 89.25 127.188 89.25C125.146 89.25 123.333 89.5625 121.75 90.1875C120.167 90.8125 118.833 91.6875 117.75 92.8125C116.708 93.9375 115.917 95.2708 115.375 96.8125C114.833 98.3542 114.562 100.062 114.562 101.938C114.562 104.938 115.396 107.812 117.062 110.562C118.771 113.271 120.896 115.958 123.438 118.625C125.979 121.292 128.729 123.958 131.688 126.625C134.646 129.292 137.396 132.062 139.938 134.938C142.479 137.812 144.583 140.833 146.25 144C147.958 147.125 148.812 150.5 148.812 154.125C148.812 156.833 148.333 159.562 147.375 162.312C146.458 165.021 145.021 167.458 143.062 169.625C141.104 171.792 138.583 173.562 135.5 174.938C132.417 176.271 128.75 176.938 124.5 176.938C122.125 176.938 119.854 176.708 117.688 176.25C115.562 175.833 113.583 175.312 111.75 174.688C109.958 174.021 108.333 173.312 106.875 172.562C105.458 171.812 104.292 171.125 103.375 170.5L104.812 156.688H106.375C106.833 158.646 107.583 160.521 108.625 162.312C109.667 164.062 110.938 165.625 112.438 167C113.979 168.333 115.729 169.417 117.688 170.25C119.646 171.042 121.792 171.438 124.125 171.438C126.25 171.438 128.146 171.125 129.812 170.5C131.521 169.833 132.979 168.938 134.188 167.812C135.396 166.646 136.312 165.271 136.938 163.688C137.604 162.104 137.938 160.375 137.938 158.5C137.938 155.875 137.458 153.458 136.5 151.25C135.542 149 134.271 146.875 132.688 144.875C131.146 142.875 129.375 140.938 127.375 139.062C125.417 137.188 123.396 135.312 121.312 133.438C119.229 131.521 117.188 129.562 115.188 127.562C113.229 125.562 111.458 123.438 109.875 121.188C108.333 118.896 107.083 116.458 106.125 113.875C105.167 111.25 104.688 108.375 104.688 105.25C104.688 101.958 105.312 99 106.562 96.375C107.854 93.7083 109.542 91.4375 111.625 89.5625C113.75 87.6875 116.146 86.25 118.812 85.25C121.479 84.25 124.229 83.75 127.062 83.75C129.146 83.75 131.062 83.9167 132.812 84.25C134.562 84.5833 136.125 84.9792 137.5 85.4375C138.917 85.8958 140.146 86.3542 141.188 86.8125C142.229 87.2708 143.083 87.6458 143.75 87.9375L143.312 99.625Z" fill="black"/>
</g>
<defs>
<clipPath id="clip0_1_6">
<rect width="200" height="200" fill="white"/>
</clipPath>
</defs>
</svg>
